PathFileType	4	(X/Y/Z)	c:\Git\powerlifing_model_clean\simulations\HC835B\Session1\HC835B_OGR_0006\marker_experimental.trc
DataRate	CameraRate	NumFrames	NumMarkers	Units	OrigDataRate	OrigDataStartFrame	OrigNumFrames
240.000000	240.000000	4	38	mm	240.000000	165	220
Frame#	Time	RPSI			LPSI			RASI			LASI			RTH1			RTH2			RTH3			RTH4			RSK1			RSK2			RSK3			RSK4			RCAL1			RCAL2			RCAL3			RST			RPT			RTN			RFMB			RSMB			RVMB			RFMH			RSMH			RVMH			RPM			LTH1			LTH2			LTH3			LTH4			LSK1			LSK2			LSK3			LSK4			LCAL1			LCAL2			LCAL3			LFMH			LVMH			
		X1	Y1	Z1	X2	Y2	Z2	X3	Y3	Z3	X4	Y4	Z4	X5	Y5	Z5	X6	Y6	Z6	X7	Y7	Z7	X8	Y8	Z8	X9	Y9	Z9	X10	Y10	Z10	X11	Y11	Z11	X12	Y12	Z12	X13	Y13	Z13	X14	Y14	Z14	X15	Y15	Z15	X16	Y16	Z16	X17	Y17	Z17	X18	Y18	Z18	X19	Y19	Z19	X20	Y20	Z20	X21	Y21	Z21	X22	Y22	Z22	X23	Y23	Z23	X24	Y24	Z24	X25	Y25	Z25	X26	Y26	Z26	X27	Y27	Z27	X28	Y28	Z28	X29	Y29	Z29	X30	Y30	Z30	X31	Y31	Z31	X32	Y32	Z32	X33	Y33	Z33	X34	Y34	Z34	X35	Y35	Z35	X36	Y36	Z36	X37	Y37	Z37	X38	Y38	Z38	

166	0.6875	457.5383605957032	1170.279174804688	-2038.6953125	343.6789855957032	1167.89306640625	-2043.297241210938	509.6885375976564	1094.662841796875	-2235.106689453125	273.0773315429688	1080.71484375	-2236.15576171875	590.6608886718751	858.3711547851565	-2269.72802734375	577.6115112304689	877.133239746094	-2326.283203125	577.2843627929689	798.3923339843752	-2328.036376953125	552.8863525390626	814.4792480468752	-2379.1337890625	530.3995361328126	474.9570312500001	-2166.014404296875	527.9130859375001	425.340301513672	-2202.6962890625	525.2271728515626	421.8240661621095	-2141.73876953125	510.4530639648439	375.5508422851563	-2177.214599609375	469.007293701172	355.4652404785157	-2002.981323242188	430.7455444335939	330.4702148437501	-1985.0439453125	493.5622863769532	322.8030090332032	-1976.793579101563	418.5678100585939	293.0748596191407	-2044.326171875	518.3132324218751	285.1833496093751	-2024.050537109375	433.5118103027345	264.7431335449219	-2094.552978515625	431.7849426269532	229.9949340820313	-2104.065185546875	482.4300842285157	231.7749633789063	-2124.049072265625	521.0940551757814	233.6827850341797	-2035.181884765625	420.0154113769532	170.2088317871094	-2118.700439453125	475.104949951172	163.5462036132813	-2135.611083984375	531.1934814453126	168.7822570800782	-2080.50341796875	461.375457763672	121.0935363769532	-2170.568115234375	214.370346069336	826.6823730468752	-2070.78955078125	222.807357788086	798.7014160156252	-2124.248291015625	223.4398956298829	740.8869628906251	-2066.59228515625	247.6046600341797	716.1412963867189	-2116.674072265625	264.4327392578126	360.0752868652344	-1822.24462890625	257.0814514160157	321.8479919433594	-1859.110107421875	267.1257629394532	303.7118225097657	-1814.048095703125	274.0690002441407	265.9636230468751	-1855.148559570313	327.8635864257813	203.8950347900391	-1701.7900390625	304.5726623535157	168.5998992919922	-1679.886840820313	362.7733764648438	175.1221313476563	-1686.510375976563	380.1711120605469	56.50865173339845	-1863.111694335938	274.5799560546876	37.56013870239259	-1813.591796875	
167	0.6916666666666667	457.7708129882814	1174.018920898438	-2052.861572265625	343.7245483398438	1170.770263671875	-2057.812255859375	510.0379028320314	1099.144165039063	-2249.150390625	274.1100769042969	1083.78515625	-2250.82568359375	590.7669067382814	862.0164794921877	-2284.026123046875	577.6714477539064	880.770935058594	-2340.5869140625	577.3400878906251	802.051208496094	-2342.29150390625	552.7734375000001	818.0337524414065	-2393.300048828125	529.4691772460939	470.4713745117189	-2184.734130859375	527.4461059570314	422.1175231933595	-2223.127685546875	524.1741943359376	416.4034423828126	-2162.375244140625	509.6358947753907	371.3585205078126	-2199.563720703125	467.3436889648439	344.6034545898438	-2026.315551757813	428.8492431640626	319.0734558105469	-2009.85009765625	491.6136169433595	310.8555297851563	-2001.190185546875	417.2191162109376	283.9816894531251	-2070.663818359375	516.7796020507814	275.0669250488282	-2049.684326171875	432.5766601562501	257.8309020996094	-2121.873291015625	430.9732666015626	223.3316040039063	-2132.6298828125	481.6595458984376	225.5970611572266	-2151.723876953125	519.6044311523439	224.1397247314454	-2062.73095703125	419.0567321777345	164.2047729492188	-2149.777587890625	474.3093261718751	158.0591735839844	-2166.34375	529.5932006835939	160.9544677734375	-2110.9345703125	460.9039001464845	117.2230758666992	-2203.161865234375	214.4398498535157	830.6917724609377	-2082.314453125	223.7520751953126	801.972351074219	-2135.272216796875	223.7825469970704	745.0090332031251	-2076.56494140625	248.7067260742188	719.6124267578126	-2126.071044921875	263.6723327636719	365.0782165527344	-1828.61669921875	255.4600067138672	326.5826416015626	-1865.77099609375	266.2123718261719	309.0439147949219	-1820.3828125	272.4228210449219	271.0945434570313	-1861.704345703125	326.7135009765626	211.4502410888672	-1710.641967773438	304.1467895507813	176.7261352539063	-1687.034790039063	362.0723571777344	183.6951141357422	-1694.477905273438	379.3379516601563	57.77629470825197	-1866.124145507813	274.5857543945313	39.46493530273438	-1814.8173828125	
168	0.6958333333333333	457.8674621582032	1177.703979492188	-2067.10986328125	343.7859497070313	1173.610473632813	-2072.271728515625	510.4378051757814	1103.767822265625	-2263.2802734375	275.1955566406251	1086.7783203125	-2265.56591796875	590.7460937500001	865.4316406250002	-2298.165283203125	577.6710205078126	884.0981445312502	-2354.779052734375	577.2933349609376	805.359802246094	-2356.3818359375	552.6066894531251	821.313903808594	-2407.373779296875	528.4553833007814	465.8427124023439	-2203.36328125	527.1060791015626	418.8983764648439	-2243.470458984375	523.0934448242189	410.8835754394532	-2183.018798828125	509.7368774414064	367.2319335937501	-2221.846435546875	465.7293090820314	333.6868896484376	-2050.0224609375	426.9925842285157	307.6789245605469	-2034.858520507813	489.4851379394532	298.9046325683594	-2025.954345703125	415.9271545410157	275.2406616210938	-2097.13330078125	515.2732543945314	265.0295104980469	-2075.532958984375	431.8928527832032	250.8827514648438	-2149.123291015625	430.1850891113282	216.8934936523438	-2161.423828125	481.1878662109376	219.8209533691407	-2179.787109375	517.9843750000001	214.6870269775391	-2090.663818359375	418.3387756347657	158.5594329833985	-2181.001953125	473.6822814941407	152.8783111572266	-2197.0966796875	528.4194335937501	153.3578033447266	-2141.19580078125	460.6027832031251	113.7422790527344	-2235.79296875	214.4769897460938	834.5774536132815	-2093.927734375	224.5481414794922	805.1833496093752	-2146.302734375	224.1224822998047	749.1330566406251	-2086.751708984375	249.5877380371094	723.0778808593751	-2135.69677734375	262.7441406250001	370.2085571289063	-1835.107666015625	254.1313018798829	331.8421020507813	-1872.27978515625	265.1369628906251	314.1498718261719	-1826.936767578125	270.8854980468751	276.2439575195313	-1868.484130859375	325.4760437011719	218.9889678955079	-1719.680908203125	303.6485290527344	185.1497497558594	-1694.40625	361.3941650390626	192.4806823730469	-1702.642211914063	378.5025634765626	59.36626434326173	-1869.673095703125	274.6730041503907	41.86534881591798	-1816.260620117188	
169	0.7	457.9218750000001	1181.29638671875	-2081.375244140625	343.7833251953126	1176.423706054688	-2086.7412109375	510.7607727050782	1108.291748046875	-2277.447998046875	276.3213500976563	1089.751586914063	-2280.38330078125	590.6232910156251	868.5791625976565	-2312.164306640625	577.6088867187501	887.1356201171877	-2368.81396484375	577.1278076171876	808.378112792969	-2370.257080078125	552.4266967773439	824.2928466796877	-2421.256103515625	527.4498291015626	461.1085205078126	-2221.9580078125	526.7280273437501	415.5593872070314	-2263.669921875	522.1832885742189	405.4968566894532	-2203.68701171875	509.479949951172	363.1838073730469	-2244.0615234375	464.169403076172	323.0166931152344	-2073.63818359375	425.0289001464845	296.2479858398438	-2060.190185546875	488.9482727050782	288.3316040039063	-2050.412353515625	414.7471923828126	266.5316772460938	-2123.810302734375	513.8295288085939	255.2313385009766	-2101.538818359375	431.1690673828126	244.2640228271485	-2176.61767578125	429.6486816406251	210.7881317138672	-2190.345947265625	480.8221435546876	214.2355041503907	-2207.92529296875	516.5285644531251	205.4367675781251	-2118.63720703125	417.8486938476564	153.2484436035157	-2212.345703125	473.2814941406251	148.0184783935547	-2227.902587890625	527.3242797851564	145.9886932373047	-2171.608642578125	460.607879638672	110.522575378418	-2268.333251953125	214.5148162841797	838.4144287109377	-2105.61962890625	225.1930847167969	808.313659667969	-2157.479736328125	224.4711608886719	753.0870971679689	-2097.00439453125	250.4377136230469	726.4179687500001	-2145.390380859375	261.8328552246094	375.3056335449219	-1841.747924804688	252.7507934570313	337.3056945800782	-1879.078125	264.1281433105469	319.0247192382813	-1833.86376953125	269.5489196777344	281.5010375976563	-1875.454223632813	324.2600097656251	226.7287139892579	-1728.69189453125	303.0951843261719	193.5344543457032	-1701.82275390625	360.6048278808594	201.3116912841797	-1710.917236328125	377.6458740234376	61.39676666259767	-1873.276977539063	274.8005065917969	44.90158081054688	-1817.786010742188	
